<svg xmlns:dc="http://purl.org/dc/elements/1.1/" xmlns:cc="http://creativecommons.org/ns#" xmlns:rdf="http://www.w3.org/1999/02/22-rdf-syntax-ns#" xmlns:svg="http://www.w3.org/2000/svg" xmlns="http://www.w3.org/2000/svg" version="1.0" width="201" height="225" style=""><rect id="backgroundrect" width="100%" height="100%" x="0" y="0" fill="none" stroke="none"/>
  <metadata id="metadata36">
    <rdf:RDF>
      <cc:Work rdf:about="">
        <dc:format>image/svg+xml</dc:format>
        <dc:type rdf:resource="http://purl.org/dc/dcmitype/StillImage"/>
        <dc:title/>
      </cc:Work>
    </rdf:RDF>
  </metadata>
  <defs id="defs34"/>
  
<g class="currentLayer" style=""><title>Layer 1</title><g id="g3794" class="">
    <path d="m96.97058753229702,0.11283970703675783 c-13.660431005,1.1991509569999999 -24.156092474,9.111074797 -31.499346788,23.785221044 c-4.920227638,9.840455276 -8.369331937,23.958294378 -8.764928129000001,35.937441567 l-0.07417428600000059,2.3241276280000003 l-24.180817236,0.037087143 c-26.418408196999998,0.037087143 -24.700037238,0 -26.739830103000003,0.7417428600000036 c-2.2994028660000003,0.8406419080000046 -4.054860968,2.559012867 -4.9449524,4.870778114 c-0.5686695260000006,1.471123339 -0.7664676220000006,2.6208247719999997 -0.7664676220000006,4.611168113 c-0.012362381,1.211513338 1.471123339,22.091574847 4.536993827000001,64.222569295 c2.497200962,34.330332037 4.623530494,63.29539072 4.7347919229999995,64.358555486 c0.2225228580000002,2.287040485 0.729380479,4.932590019 1.347499529,6.984745265 c2.781535725,9.185249083 8.28279527,14.847219581 16.31834292,16.81283816 c2.929884297,0.7170180979999999 -2.113967151,0.667568574 73.34600647299999,0.667568574 c75.03965267,0 69.98343884100001,0.037087143 72.876235995,-0.6304814310000006 c4.536993827000001,-1.0631647659999999 8.628941938,-3.572728109 11.571188615999999,-7.096006694 c3.931237158,-4.722429542 6.514974787000001,-11.682450045 7.04655717,-18.976254835 c0.07417428600000059,-0.98899048 0.49449524,-6.7745847879999985 0.9395409560000006,-12.85687624 c0.4450457160000003,-6.082291452000001 2.460113819,-33.514414891 4.462819541,-60.94653833 c2.015068103,-27.432123439 3.683989538,-50.673399718999995 3.721076681,-51.637665436999995 c0.2225228580000002,-5.983392404 -2.200503818,-9.630294799000001 -7.244355266,-10.87889528 c-0.7417428600000036,-0.18543571500000094 -3.028783345,-0.210160477 -25.182170097,-0.24724762000000094 l-24.366252951,-0.037087143 l-0.14834857199999998,-2.732086201 c-0.7788300029999999,-14.290912436 -5.19220002,-29.212306303000002 -11.768986712,-39.794504439 c-2.262315723,-3.659264776 -4.376282874,-6.366626215 -7.096006694,-9.098712416 c-6.280089547999999,-6.292451929 -13.450270527999999,-9.716831465999999 -21.88141437,-10.433849564 c-1.706008578,-0.13598619100000106 -4.536993827000001,-0.13598619100000106 -6.243002405,0.012362381 zm5.328186211,11.24976671 c7.751212887,0.7911923839999995 13.981852910999999,4.784241447 19.062791502,12.226394809 c4.784241447,7.021832408 8.307520032000001,17.134260066 10.211326706,29.29884297 c0.395596192000002,2.559012867 0.815917146,6.069929071 0.9519033370000006,8.060272412 l0.08653666700000077,1.211513338 l-32.290539171999995,0 c-17.752379116,0 -32.278176791,-0.037087143 -32.278176791,-0.09889904800000099 c0.037087143,-1.9161690550000001 0.543944764,-7.009470027000001 1.001352861,-10.161877182 c2.385939533,-16.367792444 7.986098125999999,-28.581824872 16.058732919,-35.072074897 c3.622177633,-2.917521916 8.03554765,-4.796603827999999 12.547816715,-5.340548592 c2.287040485,-0.2843347630000032 2.96697144,-0.29669714399999997 4.6482552560000014,-0.12362381000000022 zm4.623530494,79.292311734 c6.848759074,0.9395409560000006 13.22774767,3.238943822 18.803181501,6.7745847879999985 c2.3488523900000002,1.48348572 3.028783345,2.3488523900000002 3.1153200119999997,3.943599539 c0.13598619100000106,2.249953342 -1.5700223869999999,4.302108587999999 -3.572728109,4.302108587999999 c-0.815917146,0 -1.310412386,-0.2348852390000004 -3.498553823,-1.6441966730000006 c-1.5823847679999998,-1.0260776230000002 -4.388645255,-2.497200962 -6.1935528810000005,-3.238943822 c-5.909218118,-2.460113819 -12.325293857,-3.399654775 -17.665842449,-2.5961000100000002 c-8.418781461,1.2733252430000004 -15.82384768,6.6756857400000005 -18.036713879,13.165935765 c-0.927178575,2.732086201 -1.0508023850000001,5.909218118 -0.3214219060000028,8.53004289 c1.2362381,4.499906684 5.31582383,8.319882413 12.968137669,12.164582904000001 c3.0905952500000002,1.5576600059999999 4.994401924,2.361214771 10.347312897,4.351558112 c8.579492414,3.177131917 14.192013388,5.847406212999999 18.951530073,9.012175749 c4.401007636,2.929884297 8.171533840999999,6.700410502 10.458574325999999,10.458574325999999 c4.178484778,6.861121455 4.475181922,15.724948632 0.7664676220000006,23.167101994 c-2.991696202,5.983392404 -8.727840985999999,10.557473374 -16.479053873,13.141211003 c-7.936648602,2.657911915 -16.751026255,2.917521916 -25.651940575,0.7541052410000006 c-7.157818599,-1.743095721 -14.71123339,-5.31582383 -20.756437699,-9.803368133 c-2.039792865,-1.5205728630000002 -2.694999058000003,-2.6208247719999997 -2.583737629,-4.289746207 c0.13598619100000106,-1.8172700069999999 1.693646197,-3.276030965 3.671627157,-3.424379537 c1.0508023850000001,-0.07417428600000059 1.3722242910000002,0.07417428600000059 3.201856679,1.3722242910000002 c7.813024792,5.612520974 16.81283816,9.111074797 25.367605811999997,9.865180038 c2.113967151,0.18543571500000094 6.762222407,0.07417428600000059 8.53004289,-0.197798096000002 c4.462819541,-0.6922933360000064 8.616579557,-2.237590961 12.040959094000002,-4.512269065 c2.670274296,-1.780182864 4.586443351,-3.906512396 5.93394288,-6.6385985970000005 c1.248600481,-2.497200962 1.718370959,-4.524631446 1.718370959,-7.269080027999999 c-0.012362381,-4.623530494 -1.780182864,-8.468230985 -5.7237824029999995,-12.436555285999999 c-2.694999058000003,-2.694999058000003 -5.7361447839999995,-4.808966209 -10.13715242,-7.034194789 c-3.5603657280000003,-1.780182864 -6.243002405,-2.917521916 -14.599971961,-6.168828119 c-4.524631446,-1.755458102 -6.6385985970000005,-2.682636677 -9.160524320999999,-4.030136206 c-8.888551939000001,-4.771879066 -13.784054815,-9.556120513 -15.848572441999998,-15.502425774 c-0.8406419080000046,-2.410664295 -0.98899048,-3.436741918 -0.98899048,-6.564424311 c0,-2.5713752480000003 0.024724762,-2.905159535 0.3461466680000032,-4.363920492999999 c1.6071095300000002,-7.466878124 6.2182776429999995,-13.586256719000001 13.240110050999998,-17.55458102 c3.622177633,-2.039792865 8.233345746,-3.436741918 12.98050005,-3.918874777 c1.681283816,-0.1607109530000015 7.034194789,-0.061811905000000444 8.77729051,0.18543571500000094 z" id="path6" style="fill:#ff5722;fill-opacity:1;stroke:none" stroke-width="0"/>
  </g></g></svg>